<svg width="991" height="582" viewBox="0 0 991 582" fill="none" xmlns="http://www.w3.org/2000/svg">
<g clip-path="url(#clip0_1_57)">
<mask id="mask0_1_57" style="mask-type:luminance" maskUnits="userSpaceOnUse" x="0" y="0" width="991" height="582">
<path d="M990.36 0H0V581.69H990.36V0Z" fill="white"/>
</mask>
<g mask="url(#mask0_1_57)">
<path d="M794.49 181.77C788.13 180.39 653.89 150.78 634.54 107.47C634.41 107.17 634.28 106.91 634.15 106.64C655.77 154.29 655.77 209.35 634.15 257C634.28 256.72 634.41 256.46 634.54 256.17C653.88 212.86 788.12 183.26 794.49 181.87C794.55 181.86 794.55 181.78 794.49 181.77Z" fill="white"/>
<path d="M634.16 106.64C625.38 87.29 613.05 69.16 597.14 53.25C561.63 17.75 515.1 0 468.56 0V70.17C497.14 70.17 525.71 81.07 547.51 102.87C591.11 146.47 591.11 217.17 547.51 260.78C503.91 304.38 433.21 304.38 389.6 260.78C367.8 238.98 356.9 210.4 356.9 181.83H286.73C286.73 228.36 304.48 274.9 339.98 310.4C410.99 381.41 526.11 381.41 597.12 310.4C613.03 294.49 625.37 276.36 634.15 257.01C655.77 209.36 655.77 154.3 634.15 106.65L634.16 106.64Z" fill="url(#paint0_linear_1_57)"/>
<path d="M532.7 173.86C517.19 189.37 492.04 189.37 476.53 173.86C461.02 158.35 461.02 133.2 476.53 117.69C480.37 113.85 484.81 110.96 489.55 109.02C463.92 101.66 435.18 108.06 415 128.25C385.41 157.84 385.41 205.81 415 235.4C444.59 264.99 492.56 264.99 522.15 235.4C542.34 215.21 548.74 186.47 541.38 160.85C539.44 165.59 536.55 170.02 532.71 173.87L532.7 173.86Z" fill="white"/>
<path d="M195.83 0C195.83 0 286.74 0 286.74 181.82H356.91C356.91 153.24 367.81 124.67 389.61 102.87C411.41 81.07 439.99 70.17 468.56 70.17V0H195.83Z" fill="white"/>
<path d="M0 579.5L40.21 419.97H75.39L115.82 579.5H87.85L79.11 540.82H36.72L27.98 579.5H0ZM41.74 518.53H74.08L64.46 475.7C62.85 468.56 61.47 462.12 60.31 456.36C59.14 450.61 58.35 446.42 57.91 443.8C57.47 446.42 56.67 450.61 55.5 456.36C54.33 462.12 52.95 468.49 51.35 475.48L41.73 518.53H41.74Z" fill="white"/>
<path d="M206.29 579.5C194.34 579.5 184.77 575.93 177.56 568.79C170.35 561.65 166.74 552.26 166.74 540.6V444.67H127.19V419.98H194.06V539.95C194.06 544.47 195.33 548.07 197.88 550.77C200.43 553.47 203.89 554.81 208.26 554.81H243.44V579.51H206.29V579.5Z" fill="white"/>
<path d="M315.77 581.47C300.33 581.47 288.09 577.14 279.06 568.47C270.03 559.8 265.51 548.11 265.51 533.4V505.43C265.51 490.57 270.03 478.84 279.06 470.25C288.09 461.66 300.33 457.36 315.77 457.36C331.21 457.36 343.45 461.66 352.48 470.25C361.51 478.85 366.03 490.58 366.03 505.43V533.4C366.03 548.12 361.51 559.81 352.48 568.47C343.44 577.14 331.21 581.47 315.77 581.47ZM315.77 557.65C323.06 557.65 328.7 555.65 332.71 551.64C336.71 547.64 338.72 541.84 338.72 534.27V504.55C338.72 496.98 336.71 491.19 332.71 487.18C328.7 483.18 323.06 481.17 315.77 481.17C308.48 481.17 302.84 483.17 298.83 487.18C294.82 491.19 292.82 496.98 292.82 504.55V534.27C292.82 541.84 294.82 547.64 298.83 551.64C302.84 555.65 308.48 557.65 315.77 557.65Z" fill="white"/>
<path d="M444.7 581.69C429.4 581.69 417.38 577.43 408.64 568.91C399.9 560.39 395.53 548.77 395.53 534.05V459.31H422.84V533.83C422.84 541.41 424.73 547.31 428.52 551.53C432.31 555.76 437.7 557.87 444.69 557.87C451.68 557.87 456.89 555.76 460.75 551.53C464.61 547.31 466.54 541.41 466.54 533.83V459.31H493.85V534.05C493.85 548.77 489.4 560.38 480.52 568.91C471.63 577.43 459.68 581.69 444.68 581.69H444.7Z" fill="white"/>
<path d="M573.85 581.69C563.65 581.69 554.76 579.72 547.19 575.79C539.61 571.86 533.75 566.28 529.6 559.07C525.45 551.86 523.37 543.37 523.37 533.61V505.2C523.37 495.44 525.45 486.95 529.6 479.74C533.75 472.53 539.61 466.96 547.19 463.02C554.76 459.09 563.65 457.12 573.85 457.12C584.05 457.12 592.68 459.09 600.18 463.02C607.68 466.95 613.51 472.45 617.66 479.52C621.81 486.59 623.89 494.86 623.89 504.32V526.18H549.59V534.48C549.59 542.64 551.7 548.79 555.93 552.95C560.15 557.1 566.12 559.17 573.85 559.17C579.53 559.17 584.37 558.19 588.38 556.22C592.38 554.25 594.75 551.38 595.48 547.59H622.58C620.68 557.94 615.29 566.2 606.41 572.39C597.52 578.59 586.67 581.68 573.85 581.68V581.69ZM549.59 504.33V508.48L597.67 508.26V504.11C597.67 495.81 595.63 489.4 591.55 484.88C587.47 480.37 581.57 478.11 573.85 478.11C566.13 478.11 559.79 480.41 555.71 484.99C551.63 489.58 549.59 496.03 549.59 504.33Z" fill="white"/>
<path d="M861.87 484V459.3H814.01V425.43H786.47V459.3H705.39V425.43H677.86V459.3H644.64V484H677.86V543.44C677.86 554.52 681.17 563.3 687.8 569.78C694.43 576.26 703.35 579.5 714.57 579.5H752.16V554.8H716.54C713.05 554.8 710.31 553.68 708.34 551.42C706.38 549.16 705.39 546.28 705.39 542.79V484.01H786.47V543.45C786.47 554.53 789.78 563.31 796.41 569.79C803.04 576.27 811.96 579.51 823.18 579.51H860.77V554.81H825.15C821.65 554.81 818.92 553.69 816.95 551.43C814.98 549.17 814 546.29 814 542.8V484.02H861.86L861.87 484Z" fill="white"/>
<path d="M940.32 581.69C930.12 581.69 921.23 579.72 913.66 575.79C906.08 571.86 900.22 566.28 896.07 559.07C891.92 551.86 889.84 543.37 889.84 533.61V505.2C889.84 495.44 891.92 486.95 896.07 479.74C900.22 472.53 906.08 466.96 913.66 463.02C921.23 459.09 930.12 457.12 940.32 457.12C950.52 457.12 959.15 459.09 966.65 463.02C974.15 466.95 979.98 472.45 984.13 479.52C988.28 486.59 990.36 494.86 990.36 504.32V526.18H916.06V534.48C916.06 542.64 918.17 548.79 922.4 552.95C926.62 557.1 932.59 559.17 940.32 559.17C946 559.17 950.84 558.19 954.85 556.22C958.85 554.25 961.22 551.38 961.95 547.59H989.05C987.15 557.94 981.76 566.2 972.88 572.39C963.99 578.59 953.14 581.68 940.32 581.68V581.69ZM916.07 504.33V508.48L964.15 508.26V504.11C964.15 495.81 962.11 489.4 958.03 484.88C953.95 480.37 948.05 478.11 940.33 478.11C932.61 478.11 926.27 480.41 922.19 484.99C918.11 489.58 916.07 496.03 916.07 504.33Z" fill="white"/>
</g>
</g>
<defs>
<linearGradient id="paint0_linear_1_57" x1="358.82" y1="329.22" x2="615.96" y2="72.08" gradientUnits="userSpaceOnUse">
<stop stop-color="#FF00AA"/>
<stop offset="1" stop-color="#FFC800"/>
</linearGradient>
<clipPath id="clip0_1_57">
<rect width="991" height="582" fill="white"/>
</clipPath>
</defs>
</svg>
